<svg width="760" height="300" viewBox="0 0 760 300" xmlns="http://www.w3.org/2000/svg" role="img" aria-label="GitHub stats for Adithya Krishnan">
  <defs>
    <pattern id="waveStrip" width="34" height="17" patternUnits="userSpaceOnUse">
    <path d="M0,17 A17,17 0 0 1 34,17" fill="none" stroke="#5C7C97" stroke-width="1.2" />
    <path d="M-8.5,17 A8.5,8.5 0 0 1 8.5,17" fill="none" stroke="#5C7C97" stroke-width="1" />
    <path d="M8.5,17 A8.5,8.5 0 0 1 25.5,17" fill="none" stroke="#5C7C97" stroke-width="1" />
  </pattern>
  </defs>

  <rect x="0" y="0" width="760" height="300" fill="#F1EBE0" />
  <rect x="1" y="1" width="758" height="298" fill="none" stroke="#3B332C" stroke-opacity="0.16" stroke-width="1" />
  <line x1="150" y1="24" x2="150" y2="276" stroke="#3B332C" stroke-opacity="0.14" stroke-width="1" />

  <!-- left illustration column -->
  <circle cx="118" cy="60" r="4.32" fill="#D68F87" opacity="0.9" /><circle cx="113.85410196624969" cy="65.70633909777092" r="4.32" fill="#D68F87" opacity="0.9" /><circle cx="107.14589803375031" cy="63.52671151375484" r="4.32" fill="#D68F87" opacity="0.9" /><circle cx="107.14589803375031" cy="56.47328848624516" r="4.32" fill="#D68F87" opacity="0.9" /><circle cx="113.85410196624969" cy="54.29366090222908" r="4.32" fill="#D68F87" opacity="0.9" /><circle cx="112" cy="60" r="1.92" fill="#3B332C" />
  
    <line x1="48" y1="104" x2="48" y2="144" stroke="#8B9A81" stroke-width="2.2" stroke-linecap="round" />
    
    <line x1="48" y1="108" x2="39" y2="101" stroke="#8B9A81" stroke-width="2.2" stroke-linecap="round" />
    <line x1="48" y1="108" x2="57" y2="101" stroke="#8B9A81" stroke-width="2.2" stroke-linecap="round" />
  
    
    <line x1="48" y1="120" x2="35" y2="113" stroke="#8B9A81" stroke-width="2.2" stroke-linecap="round" />
    <line x1="48" y1="120" x2="61" y2="113" stroke="#8B9A81" stroke-width="2.2" stroke-linecap="round" />
  
    
    <line x1="48" y1="132" x2="32" y2="125" stroke="#8B9A81" stroke-width="2.2" stroke-linecap="round" />
    <line x1="48" y1="132" x2="64" y2="125" stroke="#8B9A81" stroke-width="2.2" stroke-linecap="round" />
  
  
  
    <path d="M 44,244 L 90,176 L 136,244 Z" fill="#3B332C" />
    <path d="M 76,202 L 83,194 L 88,200 L 92,193 L 97,199 L 104,191 L 110,202 Z" fill="#F1EBE0" />
    <ellipse cx="80" cy="214" rx="22" ry="6" fill="#F1EBE0" opacity="0.85" />
    <ellipse cx="108" cy="219" rx="26" ry="6.5" fill="#F1EBE0" opacity="0.85" />
  
  <rect x="26" y="246" width="112" height="16" fill="url(#waveStrip)" />

  <!-- right content -->
  <text x="176" y="44" font-family='"Helvetica Neue", Helvetica, Arial, "Segoe UI", sans-serif' font-size="18" font-weight="700" letter-spacing="0.5" fill="#3B332C">GitHub Stats</text>

  <line x1="176" y1="60" x2="730" y2="60" stroke="#3B332C" stroke-opacity="0.16" stroke-width="1" />

  
        <circle cx="176" cy="92" r="2.6" fill="#D68F87" />
        <text x="190" y="96" font-family='"JetBrains Mono", "SF Mono", "Cascadia Code", Consolas, ui-monospace, monospace' font-size="12" letter-spacing="1" fill="#8A8274">STARS</text>
        <text x="450" y="96" font-family='"JetBrains Mono", "SF Mono", "Cascadia Code", Consolas, ui-monospace, monospace' font-size="17" font-weight="600" fill="#3B332C" text-anchor="end">305</text>
      
        <circle cx="176" cy="126" r="2.6" fill="#5C7C97" />
        <text x="190" y="130" font-family='"JetBrains Mono", "SF Mono", "Cascadia Code", Consolas, ui-monospace, monospace' font-size="12" letter-spacing="1" fill="#8A8274">COMMITS '26</text>
        <text x="450" y="130" font-family='"JetBrains Mono", "SF Mono", "Cascadia Code", Consolas, ui-monospace, monospace' font-size="17" font-weight="600" fill="#3B332C" text-anchor="end">194</text>
      
        <circle cx="176" cy="160" r="2.6" fill="#8B9A81" />
        <text x="190" y="164" font-family='"JetBrains Mono", "SF Mono", "Cascadia Code", Consolas, ui-monospace, monospace' font-size="12" letter-spacing="1" fill="#8A8274">PULL REQS</text>
        <text x="450" y="164" font-family='"JetBrains Mono", "SF Mono", "Cascadia Code", Consolas, ui-monospace, monospace' font-size="17" font-weight="600" fill="#3B332C" text-anchor="end">156</text>
      
        <circle cx="176" cy="194" r="2.6" fill="#D68F87" />
        <text x="190" y="198" font-family='"JetBrains Mono", "SF Mono", "Cascadia Code", Consolas, ui-monospace, monospace' font-size="12" letter-spacing="1" fill="#8A8274">ISSUES</text>
        <text x="450" y="198" font-family='"JetBrains Mono", "SF Mono", "Cascadia Code", Consolas, ui-monospace, monospace' font-size="17" font-weight="600" fill="#3B332C" text-anchor="end">8</text>
      
        <circle cx="176" cy="228" r="2.6" fill="#5C7C97" />
        <text x="190" y="232" font-family='"JetBrains Mono", "SF Mono", "Cascadia Code", Consolas, ui-monospace, monospace' font-size="12" letter-spacing="1" fill="#8A8274">REPOS</text>
        <text x="450" y="232" font-family='"JetBrains Mono", "SF Mono", "Cascadia Code", Consolas, ui-monospace, monospace' font-size="17" font-weight="600" fill="#3B332C" text-anchor="end">63</text>
      
  
    <circle cx="590" cy="160" r="44" fill="none" stroke="#3B332C" stroke-opacity="0.12" stroke-width="7" />
    <circle cx="590" cy="160" r="44" fill="none" stroke="#5C7C97" stroke-width="7" stroke-linecap="round"
      stroke-dasharray="217.51450699178528 58.94564652411648" transform="rotate(-90 590 160)" />
    <text x="590" y="168" font-family='"Helvetica Neue", Helvetica, Arial, "Segoe UI", sans-serif' font-size="24" font-weight="700" fill="#3B332C" text-anchor="middle">A</text>
  

  <text x="176" y="276" font-family='"Hiragino Mincho ProN", "Yu Mincho", "Noto Serif JP", "Iowan Old Style", serif' font-style="italic" font-size="10.5" fill="#8A8274">numbers? meh.</text>
  <text x="690" y="276" font-family='"JetBrains Mono", "SF Mono", "Cascadia Code", Consolas, ui-monospace, monospace' font-size="10" fill="#8A8274" text-anchor="end">github.com/fal3n-4ngel</text>
  
    <rect x="707.46" y="264.7" width="4" height="18.6" fill="#3B332C" />
    <rect x="724.54" y="264.7" width="4" height="18.6" fill="#3B332C" />
    <rect x="701.46" y="262.7" width="33.08" height="4.5" fill="#3B332C" />
    <rect x="709.46" y="272.7" width="17.08" height="3.5" fill="#3B332C" />
  
</svg>